
<svg width="56" height="56" viewBox="0 0 56 56" fill="none" xmlns="http://www.w3.org/2000/svg">
<path d="M17.25 55.5C15.7375 55.5 14.4427 54.9615 13.3656 53.8844C12.2885 52.8073 11.75 51.5125 11.75 50C11.75 48.4875 12.2885 47.1927 13.3656 46.1156C14.4427 45.0385 15.7375 44.5 17.25 44.5C18.7625 44.5 20.0573 45.0385 21.1344 46.1156C22.2115 47.1927 22.75 48.4875 22.75 50C22.75 51.5125 22.2115 52.8073 21.1344 53.8844C20.0573 54.9615 18.7625 55.5 17.25 55.5ZM44.75 55.5C43.2375 55.5 41.9427 54.9615 40.8656 53.8844C39.7885 52.8073 39.25 51.5125 39.25 50C39.25 48.4875 39.7885 47.1927 40.8656 46.1156C41.9427 45.0385 43.2375 44.5 44.75 44.5C46.2625 44.5 47.5573 45.0385 48.6344 46.1156C49.7115 47.1927 50.25 48.4875 50.25 50C50.25 51.5125 49.7115 52.8073 48.6344 53.8844C47.5573 54.9615 46.2625 55.5 44.75 55.5ZM14.9125 11.5L21.5125 25.25H40.7625L48.325 11.5H14.9125ZM12.3 6H52.8625C53.9167 6 54.7188 6.46979 55.2688 7.40938C55.8188 8.34896 55.8417 9.3 55.3375 10.2625L45.575 27.8625C45.0708 28.7792 44.3948 29.4896 43.5469 29.9938C42.699 30.4979 41.7708 30.75 40.7625 30.75H20.275L17.25 36.25H50.25V41.75H17.25C15.1875 41.75 13.6292 40.8448 12.575 39.0344C11.5208 37.224 11.475 35.425 12.4375 33.6375L16.15 26.9L6.25 6H0.75V0.5H9.6875L12.3 6Z" fill="white"/>
</svg>
